<svg xmlns="http://www.w3.org/2000/svg" xmlns:xlink="http://www.w3.org/1999/xlink" width="400" zoomAndPan="magnify" viewBox="0 0 300 299.999988" height="400" preserveAspectRatio="xMidYMid meet" version="1.0"><path fill="#ffffff" d="M 16.417969 45.523438 C 15.429688 45.507812 14.449219 45.59375 13.476562 45.773438 C 12.503906 45.953125 11.558594 46.230469 10.640625 46.597656 C 9.722656 46.964844 8.851562 47.421875 8.023438 47.964844 C 7.195312 48.507812 6.429688 49.125 5.726562 49.820312 C 5.023438 50.511719 4.394531 51.269531 3.839844 52.089844 C 3.285156 52.910156 2.816406 53.773438 2.4375 54.6875 C 2.054688 55.597656 1.765625 56.539062 1.570312 57.511719 C 1.378906 58.480469 1.28125 59.457031 1.28125 60.449219 C 1.28125 61.4375 1.378906 62.417969 1.570312 63.386719 C 1.765625 64.355469 2.054688 65.296875 2.4375 66.207031 C 2.816406 67.121094 3.285156 67.988281 3.839844 68.804688 C 4.394531 69.625 5.023438 70.382812 5.726562 71.078125 C 6.429688 71.769531 7.195312 72.390625 8.023438 72.933594 C 8.851562 73.472656 9.722656 73.929688 10.640625 74.296875 C 11.558594 74.667969 12.503906 74.941406 13.476562 75.121094 C 14.449219 75.304688 15.429688 75.386719 16.417969 75.375 L 285.074219 75.375 C 286.0625 75.386719 287.042969 75.304688 288.015625 75.121094 C 288.988281 74.941406 289.933594 74.667969 290.851562 74.296875 C 291.769531 73.929688 292.640625 73.472656 293.46875 72.933594 C 294.296875 72.390625 295.0625 71.769531 295.765625 71.078125 C 296.46875 70.382812 297.097656 69.625 297.652344 68.804688 C 298.207031 67.988281 298.675781 67.121094 299.054688 66.207031 C 299.4375 65.296875 299.726562 64.355469 299.921875 63.386719 C 300.113281 62.417969 300.210938 61.4375 300.210938 60.449219 C 300.210938 59.457031 300.113281 58.480469 299.921875 57.511719 C 299.726562 56.539062 299.4375 55.597656 299.054688 54.6875 C 298.675781 53.773438 298.207031 52.910156 297.652344 52.089844 C 297.097656 51.269531 296.46875 50.511719 295.765625 49.820312 C 295.0625 49.125 294.296875 48.507812 293.46875 47.964844 C 292.640625 47.421875 291.769531 46.964844 290.851562 46.597656 C 289.933594 46.230469 288.988281 45.953125 288.015625 45.773438 C 287.042969 45.59375 286.0625 45.507812 285.074219 45.523438 Z M 16.417969 135.074219 C 15.429688 135.0625 14.449219 135.144531 13.476562 135.324219 C 12.503906 135.507812 11.558594 135.78125 10.640625 136.148438 C 9.722656 136.519531 8.851562 136.972656 8.023438 137.515625 C 7.195312 138.058594 6.429688 138.675781 5.726562 139.371094 C 5.023438 140.066406 4.394531 140.820312 3.839844 141.640625 C 3.285156 142.460938 2.820312 143.328125 2.4375 144.238281 C 2.054688 145.152344 1.765625 146.09375 1.574219 147.0625 C 1.378906 148.03125 1.28125 149.011719 1.28125 150 C 1.28125 150.988281 1.378906 151.96875 1.574219 152.9375 C 1.765625 153.90625 2.054688 154.847656 2.4375 155.761719 C 2.820312 156.671875 3.285156 157.539062 3.839844 158.359375 C 4.394531 159.179688 5.023438 159.933594 5.726562 160.628906 C 6.429688 161.324219 7.195312 161.941406 8.023438 162.484375 C 8.851562 163.027344 9.722656 163.480469 10.640625 163.851562 C 11.558594 164.21875 12.503906 164.492188 13.476562 164.675781 C 14.449219 164.855469 15.429688 164.9375 16.417969 164.925781 L 285.074219 164.925781 C 286.0625 164.9375 287.042969 164.855469 288.015625 164.675781 C 288.988281 164.492188 289.933594 164.21875 290.851562 163.851562 C 291.769531 163.480469 292.640625 163.027344 293.46875 162.484375 C 294.296875 161.941406 295.0625 161.324219 295.765625 160.628906 C 296.46875 159.933594 297.097656 159.179688 297.652344 158.359375 C 298.207031 157.539062 298.675781 156.671875 299.054688 155.761719 C 299.4375 154.847656 299.726562 153.90625 299.921875 152.9375 C 300.113281 151.96875 300.210938 150.988281 300.210938 150 C 300.210938 149.011719 300.113281 148.03125 299.921875 147.0625 C 299.726562 146.09375 299.4375 145.152344 299.054688 144.238281 C 298.675781 143.328125 298.207031 142.460938 297.652344 141.640625 C 297.097656 140.820312 296.46875 140.066406 295.765625 139.371094 C 295.0625 138.675781 294.296875 138.058594 293.46875 137.515625 C 292.640625 136.972656 291.769531 136.519531 290.851562 136.148438 C 289.933594 135.78125 288.988281 135.507812 288.015625 135.324219 C 287.042969 135.144531 286.0625 135.0625 285.074219 135.074219 Z M 16.417969 224.625 C 15.429688 224.613281 14.449219 224.695312 13.476562 224.878906 C 12.503906 225.058594 11.558594 225.332031 10.640625 225.703125 C 9.722656 226.070312 8.851562 226.527344 8.023438 227.066406 C 7.195312 227.609375 6.429688 228.230469 5.726562 228.921875 C 5.023438 229.617188 4.394531 230.375 3.839844 231.195312 C 3.285156 232.011719 2.816406 232.878906 2.4375 233.792969 C 2.054688 234.703125 1.765625 235.644531 1.570312 236.613281 C 1.378906 237.582031 1.28125 238.5625 1.28125 239.550781 C 1.28125 240.542969 1.378906 241.519531 1.570312 242.488281 C 1.765625 243.460938 2.054688 244.402344 2.4375 245.3125 C 2.816406 246.226562 3.285156 247.089844 3.839844 247.910156 C 4.394531 248.730469 5.023438 249.488281 5.726562 250.179688 C 6.429688 250.875 7.195312 251.492188 8.023438 252.035156 C 8.851562 252.578125 9.722656 253.035156 10.640625 253.402344 C 11.558594 253.769531 12.503906 254.046875 13.476562 254.226562 C 14.449219 254.40625 15.429688 254.492188 16.417969 254.476562 L 285.074219 254.476562 C 286.0625 254.492188 287.042969 254.40625 288.015625 254.226562 C 288.988281 254.046875 289.933594 253.769531 290.851562 253.402344 C 291.769531 253.035156 292.640625 252.578125 293.46875 252.035156 C 294.296875 251.492188 295.0625 250.875 295.765625 250.179688 C 296.46875 249.488281 297.097656 248.730469 297.652344 247.910156 C 298.207031 247.089844 298.675781 246.226562 299.054688 245.3125 C 299.4375 244.402344 299.726562 243.460938 299.921875 242.488281 C 300.117188 241.519531 300.210938 240.542969 300.210938 239.550781 C 300.210938 238.5625 300.117188 237.582031 299.921875 236.613281 C 299.726562 235.644531 299.4375 234.703125 299.054688 233.792969 C 298.675781 232.878906 298.207031 232.011719 297.652344 231.195312 C 297.097656 230.375 296.46875 229.617188 295.765625 228.921875 C 295.0625 228.230469 294.296875 227.609375 293.46875 227.066406 C 292.640625 226.527344 291.769531 226.070312 290.851562 225.703125 C 289.933594 225.332031 288.988281 225.058594 288.015625 224.878906 C 287.042969 224.695312 286.0625 224.613281 285.074219 224.625 Z M 16.417969 224.625 " fill-opacity="1" fill-rule="nonzero"/></svg>