<svg xmlns="http://www.w3.org/2000/svg" xmlns:xlink="http://www.w3.org/1999/xlink" width="400" zoomAndPan="magnify" viewBox="0 0 300 299.999988" height="400" preserveAspectRatio="xMidYMid meet" version="1.0"><path fill="#ffffff" d="M 121.574219 0.539062 C 54.136719 1.277344 0.0625 56.558594 0.804688 124 C 1.539062 191.433594 56.816406 245.507812 124.261719 244.769531 C 149.167969 244.496094 173.390625 236.609375 193.699219 222.167969 L 263.449219 291.90625 C 271.433594 299.789062 284.308594 299.707031 292.191406 291.707031 C 299.996094 283.800781 299.996094 271.078125 292.191406 263.160156 L 222.441406 193.421875 C 261.535156 138.46875 248.660156 62.21875 193.699219 23.125 C 172.644531 8.167969 147.398438 0.253906 121.574219 0.539062 Z M 120.105469 21.675781 C 175.800781 20.117188 222.214844 64 223.769531 119.703125 C 223.792969 120.683594 223.816406 121.660156 223.816406 122.640625 C 223.835938 178.355469 178.683594 223.542969 122.972656 223.574219 C 67.253906 223.59375 22.066406 178.453125 22.039062 122.730469 C 22.039062 122.703125 22.039062 122.675781 22.039062 122.644531 C 21.976562 67.980469 65.457031 23.203125 120.105469 21.675781 Z M 120.105469 21.675781 " fill-opacity="1" fill-rule="nonzero"/><path fill="#ffffff" d="M 95.6875 47.824219 C 101.210938 45.847656 107.289062 48.71875 109.269531 54.238281 C 111.234375 59.722656 108.417969 65.765625 102.953125 67.789062 C 79.886719 76.183594 64.535156 98.109375 64.535156 122.648438 C 64.535156 128.519531 59.78125 133.273438 53.914062 133.273438 C 48.050781 133.273438 43.296875 128.519531 43.296875 122.648438 C 43.296875 89.175781 64.230469 59.273438 95.6875 47.824219 Z M 95.6875 47.824219 " fill-opacity="1" fill-rule="nonzero"/></svg>